<svg xmlns="http://www.w3.org/2000/svg" viewBox="0 0 64 64" role="img" aria-label="Logo M">
  <defs>
    <linearGradient id="background" x1="10" y1="6" x2="54" y2="58" gradientUnits="userSpaceOnUse">
      <stop stop-color="#111827"/>
      <stop offset="1" stop-color="#020617"/>
    </linearGradient>
    <linearGradient id="accent" x1="18" y1="14" x2="46" y2="50" gradientUnits="userSpaceOnUse">
      <stop stop-color="#38BDF8"/>
      <stop offset="1" stop-color="#14B8A6"/>
    </linearGradient>
    <filter id="softShadow" x="8" y="7" width="48" height="52" color-interpolation-filters="sRGB" filterUnits="userSpaceOnUse">
      <feDropShadow dx="0" dy="4" stdDeviation="3" flood-color="#000000" flood-opacity=".35"/>
    </filter>
  </defs>

  <rect width="64" height="64" rx="16" fill="url(#background)"/>
  <path d="M13 48h38" stroke="#1E293B" stroke-width="3" stroke-linecap="round"/>
  <g filter="url(#softShadow)">
    <path
      d="M17 47V18h8l7 13 7-13h8v29h-8V31l-7 12-7-12v16h-8Z"
      fill="url(#accent)"
    />
    <path
      d="M17 47V18h8l7 13 7-13h8v29h-8V31l-7 12-7-12v16h-8Z"
      fill="none"
      stroke="#BAE6FD"
      stroke-linejoin="round"
      stroke-width="1.5"
    />
  </g>
  <path d="M21 22v21M43 22v21" stroke="#ECFEFF" stroke-linecap="round" stroke-opacity=".45" stroke-width="2"/>
</svg>
